<?xml version="1.0" encoding="UTF-8" standalone="no"?>
<svg width="23px" height="22px" viewBox="0 0 23 22" version="1.1" xmlns="http://www.w3.org/2000/svg" xmlns:xlink="http://www.w3.org/1999/xlink">
    <!-- Generator: sketchtool 3.7.2 (28276) - http://www.bohemiancoding.com/sketch -->
    <title>C2D7317C-AB09-4195-BC87-27B0C8C378D9</title>
    <desc>Created with sketchtool.</desc>
    <defs>
        <filter x="-50%" y="-50%" width="200%" height="200%" filterUnits="objectBoundingBox" id="filter-1">
            <feOffset dx="0" dy="2" in="SourceAlpha" result="shadowOffsetOuter1"></feOffset>
            <feGaussianBlur stdDeviation="1.5" in="shadowOffsetOuter1" result="shadowBlurOuter1"></feGaussianBlur>
            <feColorMatrix values="0 0 0 0 0   0 0 0 0 0   0 0 0 0 0  0 0 0 0.2 0" type="matrix" in="shadowBlurOuter1" result="shadowMatrixOuter1"></feColorMatrix>
            <feMerge>
                <feMergeNode in="shadowMatrixOuter1"></feMergeNode>
                <feMergeNode in="SourceGraphic"></feMergeNode>
            </feMerge>
        </filter>
    </defs>
    <g id="Page" stroke="none" stroke-width="1" fill="none" fill-rule="evenodd">
        <g id="Desktop" transform="translate(-27.000000, -676.000000)" fill="#999999">
            <g id="::-index" filter="url(#filter-1)">
                <g id="::-go-to-github" transform="translate(30.000000, 677.000000)">
                    <g id="GitHub-Mark">
                        <path d="M8.39078788,0 C3.75751515,0 0,3.67049013 0,8.19908882 C0,11.8207599 2.40421212,14.8938454 5.73878788,15.9779309 C6.15863636,16.0529211 6.31163636,15.7997664 6.31163636,15.5828487 C6.31163636,15.3880757 6.30442424,14.8727072 6.30030303,14.1882336 C3.96615152,14.6839737 3.47366667,13.0895526 3.47366667,13.0895526 C3.09193939,12.1423618 2.54175758,11.8902138 2.54175758,11.8902138 C1.77984848,11.3813882 2.59945455,11.3919572 2.59945455,11.3919572 C3.44172727,11.4498355 3.88475758,12.236477 3.88475758,12.236477 C4.63327273,13.4896678 5.8490303,13.1278026 6.32709091,12.9179309 C6.40333333,12.3879671 6.62021212,12.0266053 6.85975758,11.8217664 C4.99645455,11.6149145 3.03733333,10.9113158 3.03733333,7.76978289 C3.03733333,6.87493421 3.36445455,6.14315132 3.90124242,5.56990461 C3.81469697,5.36254934 3.52672727,4.52910197 3.98366667,3.40022368 C3.98366667,3.40022368 4.68787879,3.17978289 6.2910303,4.24071711 C6.96021212,4.05902961 7.67833333,3.96793421 8.39181818,3.96491447 C9.10478788,3.96793421 9.82239394,4.05902961 10.4926061,4.24071711 C12.0947273,3.17978289 12.7979091,3.40022368 12.7979091,3.40022368 C13.2558788,4.52910197 12.9679091,5.36254934 12.8818788,5.56990461 C13.419697,6.14315132 13.7442424,6.87493421 13.7442424,7.76978289 C13.7442424,10.9193684 11.7820303,11.612398 9.91306061,11.8152237 C10.2139091,12.0683783 10.482303,12.568648 10.482303,13.333648 C10.482303,14.4298125 10.472,15.3140921 10.472,15.5828487 C10.472,15.8017796 10.6234545,16.0569474 11.0489697,15.9769243 C14.3809697,14.8908257 16.7831212,11.8197533 16.7831212,8.19908882 C16.7831212,3.67049013 13.0256061,0 8.39078788,0 L8.39078788,0 Z" id="Shape"></path>
                    </g>
                </g>
            </g>
        </g>
    </g>
</svg>