<?xml version="1.0" encoding="UTF-8" standalone="no"?>
<svg width="95px" height="23px" viewBox="0 0 95 23" version="1.1" xmlns="http://www.w3.org/2000/svg" xmlns:xlink="http://www.w3.org/1999/xlink">
    <!-- Generator: sketchtool 3.7.2 (28276) - http://www.bohemiancoding.com/sketch -->
    <title>DAF301D6-4876-4D04-961B-FAD7EB54801C</title>
    <desc>Created with sketchtool.</desc>
    <defs>
        <linearGradient x1="0%" y1="0%" x2="100%" y2="100%" id="linearGradient-1">
            <stop stop-color="#D9BCF6" offset="0%"></stop>
            <stop stop-color="#B086E8" offset="100%"></stop>
        </linearGradient>
        <path d="M12.4581152,0 L0,4.14250533 L0,7.02411643 L3.29777793,7.92499865 L0,9.02776031 L0,11.9029325 L3.30173345,12.7986067 L0,13.8893428 L0,16.7803282 L3.30342868,17.6718361 L0,18.7603942 L0,21.6533681 L4.54301495,22.9851853 L4.57786125,22.9953171 L17,18.8674888 L17,15.9823742 L12.4505809,14.6373004 L4.9384733,17.1284092 L4.9384733,15.5671578 L17,11.5610063 L17,8.46691047 L12.4389968,7.44927527 L12.4074468,7.44236288 L4.56232168,10.0449221 L1.63768164,9.25066096 L17,4.14383099 L17,1.27235174 L12.4581152,0 Z M1.63768164,4.37733694 L12.4377725,0.794734553 L15.3625067,1.58899566 L4.56232168,5.17159804 L1.63768164,4.37733694 Z M4.9384733,5.82050974 L16.2692638,2.06206772 L16.2692638,3.62341385 L4.9384733,7.38185587 L4.9384733,5.82050974 Z M0.730924562,6.46620197 L0.730924562,4.89235675 L4.20745456,5.836323 L4.20745456,7.41026292 L0.730924562,6.46620197 Z M4.9384733,10.6938338 L12.4462486,8.20338774 L15.2593805,8.83165698 L4.9384733,12.2551799 L4.9384733,10.6938338 Z M1.63749328,14.1238903 L16.2692638,9.27035652 L16.2692638,11.034813 L4.56232168,14.9182461 L1.63749328,14.1238903 Z M0.730924562,11.339526 L0.730924562,9.76558608 L4.20745456,10.7094576 L4.20745456,12.2833029 L0.730924562,11.339526 Z M0.730924562,16.21285 L0.730924562,14.6389101 L4.20745456,15.5827817 L4.20745456,17.1566269 L0.730924562,16.21285 Z M1.59840893,19.0100922 L12.4341937,15.4160323 L15.4014969,16.2835836 L4.56599467,19.8780222 L1.59840893,19.0100922 Z M4.9384733,20.5282596 L16.2692638,16.7696282 L16.2692638,18.3448938 L4.9384733,22.1033358 L4.9384733,20.5282596 Z M0.730924562,21.0987678 L0.730924562,19.5291837 L4.20745456,20.5516481 L4.20745456,22.1212322 L0.730924562,21.0987678 Z" id="path-2"></path>
    </defs>
    <g id="Page" stroke="none" stroke-width="1" fill="none" fill-rule="evenodd">
        <g id="Desktop" transform="translate(-670.000000, -1885.000000)">
            <g id="::-made-with" transform="translate(478.000000, 1885.000000)">
                <g id="::-logo" transform="translate(192.000000, 0.000000)">
                    <g transform="translate(78.000000, 0.000000)">
                        <g>
                            <mask id="mask-3" fill="white">
                                <use xlink:href="#path-2"></use>
                            </mask>
                            <use id="Mask" fill="url(#linearGradient-1)" xlink:href="#path-2"></use>
                        </g>
                    </g>
                    <g id="txt" transform="translate(0.000000, 5.000000)" fill="#333333">
                        <path d="M0.386,14 L9.062,14 L9.062,11.732 L3.284,11.732 L3.284,8.528 L7.676,8.528 L7.676,6.404 L3.284,6.404 L3.284,3.398 L8.774,3.398 L8.774,1.13 L0.386,1.13 L0.386,14 Z M9.862,14 L12.472,14 L12.472,8.438 C12.472,7.16 13.282,6.512 14.29,6.512 C15.208,6.512 15.766,7.052 15.766,8.258 L15.766,14 L18.358,14 L18.358,8.438 C18.358,7.16 19.168,6.512 20.176,6.512 C21.112,6.512 21.652,7.052 21.652,8.258 L21.652,14 L24.244,14 L24.244,7.97 C24.244,5.468 22.894,4.37 21.148,4.37 C19.96,4.37 18.736,4.874 17.98,6.008 C17.53,4.892 16.594,4.37 15.352,4.37 C13.948,4.37 12.94,5.144 12.472,6.026 L12.472,4.586 L9.862,4.586 L9.862,14 Z M25.476,17.204 L28.086,17.204 L28.086,12.56 C28.572,13.478 29.634,14.198 31.092,14.198 C33.432,14.198 35.196,12.452 35.196,9.338 L35.196,9.194 C35.196,6.08 33.396,4.37 31.092,4.37 C29.706,4.37 28.608,5.162 28.086,6.062 L28.086,4.586 L25.476,4.586 L25.476,17.204 Z M30.318,12.164 C28.896,12.164 27.996,11.246 27.996,9.356 L27.996,9.212 C27.996,7.322 28.932,6.368 30.3,6.368 C31.614,6.368 32.55,7.304 32.55,9.212 L32.55,9.356 C32.55,11.192 31.758,12.164 30.318,12.164 L30.318,12.164 Z M38.48,14.198 C39.956,14.198 40.784,13.622 41.324,12.866 L41.324,14 L43.862,14 L43.862,7.862 C43.862,5.306 42.224,4.37 39.92,4.37 C37.616,4.37 35.852,5.36 35.69,7.592 L38.156,7.592 C38.264,6.782 38.732,6.26 39.758,6.26 C40.946,6.26 41.288,6.872 41.288,7.988 L41.288,8.366 L40.226,8.366 C37.346,8.366 35.33,9.194 35.33,11.39 C35.33,13.37 36.77,14.198 38.48,14.198 L38.48,14.198 Z M39.254,12.38 C38.3,12.38 37.886,11.93 37.886,11.246 C37.886,10.238 38.768,9.914 40.28,9.914 L41.288,9.914 L41.288,10.706 C41.288,11.75 40.406,12.38 39.254,12.38 L39.254,12.38 Z M48.532,14.18 C49.234,14.18 49.756,14.054 50.116,13.928 L50.116,11.912 C49.81,12.038 49.522,12.092 49.126,12.092 C48.46,12.092 48.082,11.732 48.082,10.976 L48.082,6.44 L50.062,6.44 L50.062,4.586 L48.082,4.586 L48.082,2.552 L45.49,2.552 L45.49,4.586 L44.284,4.586 L44.284,6.44 L45.49,6.44 L45.49,11.21 C45.49,13.172 46.552,14.18 48.532,14.18 L48.532,14.18 Z M50.88,14 L53.49,14 L53.49,8.564 C53.49,7.178 54.336,6.494 55.452,6.494 C56.604,6.494 57.108,7.106 57.108,8.384 L57.108,14 L59.718,14 L59.718,8.006 C59.718,5.486 58.404,4.37 56.55,4.37 C54.984,4.37 53.958,5.144 53.49,6.08 L53.49,0.32 L50.88,0.32 L50.88,14 Z M61.022,14 L63.614,14 L63.614,4.586 L61.022,4.586 L61.022,14 Z M62.3,3.308 C63.146,3.308 63.794,2.696 63.794,1.886 C63.794,1.076 63.146,0.464 62.3,0.464 C61.472,0.464 60.824,1.076 60.824,1.886 C60.824,2.696 61.472,3.308 62.3,3.308 L62.3,3.308 Z M67.546,14.198 C69.022,14.198 69.85,13.622 70.39,12.866 L70.39,14 L72.928,14 L72.928,7.862 C72.928,5.306 71.29,4.37 68.986,4.37 C66.682,4.37 64.918,5.36 64.756,7.592 L67.222,7.592 C67.33,6.782 67.798,6.26 68.824,6.26 C70.012,6.26 70.354,6.872 70.354,7.988 L70.354,8.366 L69.292,8.366 C66.412,8.366 64.396,9.194 64.396,11.39 C64.396,13.37 65.836,14.198 67.546,14.198 L67.546,14.198 Z M68.32,12.38 C67.366,12.38 66.952,11.93 66.952,11.246 C66.952,10.238 67.834,9.914 69.346,9.914 L70.354,9.914 L70.354,10.706 C70.354,11.75 69.472,12.38 68.32,12.38 L68.32,12.38 Z" id="Empathia"></path>
                    </g>
                </g>
            </g>
        </g>
    </g>
</svg>